<mxfile host="app.diagrams.net" modified="2023-08-14T05:00:54.433Z" agent="Mozilla/5.0 (Windows NT 10.0; Win64; x64) AppleWebKit/537.36 (KHTML, like Gecko) Chrome/115.0.0.0 Safari/537.36" version="21.6.8" etag="5jtMGLgTl89flds2lB0G" type="github">
  <diagram name="Page-1" id="y943NEOSLap7EiFFeGSF">
    <mxGraphModel>
      <root>
        <mxCell id="0" />
        <mxCell id="1" parent="0" />
      </root>
    </mxGraphModel>
  </diagram>
</mxfile>
